/* XPM */
static char *be30236715b044969120d9aeef612e87SCpJUaOfBTi21IYA[] = {
/* columns rows colors chars-per-pixel */
"64 64 152 2 ",
"   c #010100",
".  c #090603",
"X  c #060B05",
"o  c #0D0A04",
"O  c #130C05",
"+  c #091107",
"@  c #0C1308",
"#  c #0E1D0C",
"$  c #171007",
"%  c #1A1207",
"&  c #141308",
"*  c #1C1309",
"=  c #151B0C",
"-  c #1C1B0C",
";  c #22160A",
":  c #251A0C",
">  c #2C1E0D",
",  c #321F0E",
"<  c #14210E",
"1  c #1A2511",
"2  c #162A12",
"3  c #1D2D13",
"4  c #2F200E",
"5  c #32210F",
"6  c #252410",
"7  c #2C2411",
"8  c #242C14",
"9  c #2A2A13",
"0  c #352411",
"q  c #392611",
"w  c #352A13",
"e  c #3D2A13",
"r  c #263216",
"t  c #2B3116",
"y  c #263719",
"u  c #2A3518",
"i  c #2C3D1B",
"p  c #333317",
"a  c #3D3317",
"s  c #313618",
"d  c #393619",
"f  c #343A1A",
"g  c #3D3B1A",
"h  c #4F2714",
"j  c #432E15",
"k  c #4D2D15",
"l  c #512714",
"z  c #512D15",
"x  c #463016",
"c  c #4A3217",
"v  c #453518",
"b  c #4B3418",
"n  c #4C3419",
"m  c #4E3518",
"M  c #4F3419",
"N  c #4F3619",
"B  c #4C371A",
"V  c #4E361A",
"C  c #45391A",
"Z  c #47381A",
"A  c #453B1B",
"S  c #463F1C",
"D  c #4A381A",
"F  c #4A391A",
"G  c #4F381A",
"H  c #4E3B1B",
"J  c #493C1B",
"K  c #4B3B1C",
"L  c #493F1D",
"P  c #4D3C1C",
"I  c #4F3F1D",
"U  c #513017",
"Y  c #503117",
"T  c #513318",
"R  c #513519",
"E  c #523418",
"W  c #503619",
"Q  c #50361A",
"!  c #51381A",
"~  c #25411C",
"^  c #2E431E",
"/  c #36431E",
"(  c #3D431E",
")  c #2B4A21",
"_  c #314B21",
"`  c #3A4D23",
"'  c #2E5223",
"]  c #355425",
"[  c #3D5526",
"{  c #3E5827",
"}  c #3B5628",
"|  c #365C29",
" . c #3D5D2A",
".. c #34632B",
"X. c #3C632C",
"o. c #3D6A2F",
"O. c #3D6D30",
"+. c #3E7433",
"@. c #3D7C36",
"#. c #3D7E38",
"$. c #47401D",
"%. c #45421E",
"&. c #44451F",
"*. c #47451E",
"=. c #47461F",
"-. c #49401D",
";. c #4A401D",
":. c #4A401E",
">. c #4B431E",
",. c #434720",
"<. c #474720",
"1. c #484620",
"2. c #494620",
"3. c #444820",
"4. c #444B22",
"5. c #474B22",
"6. c #464D22",
"7. c #474F23",
"8. c #484821",
"9. c #4B4820",
"0. c #484B22",
"q. c #4C4B22",
"w. c #484F23",
"e. c #435325",
"r. c #455124",
"t. c #445325",
"y. c #415425",
"u. c #475727",
"i. c #485526",
"p. c #435827",
"a. c #445A27",
"s. c #435628",
"d. c #49552B",
"f. c #455A28",
"g. c #425E2A",
"h. c #455D29",
"j. c #445C2A",
"k. c #49582A",
"l. c #43642C",
"z. c #43642D",
"x. c #41672D",
"c. c #416A2E",
"v. c #456730",
"b. c #436C31",
"n. c #417434",
"m. c #417A36",
"M. c #407E38",
"N. c #3D8236",
"B. c #3E8239",
"V. c #408137",
"C. c #40843B",
"Z. c #40893C",
/* pixels */
"j c b b x b n b b x k x n x q j c c j j j j j j e j j j j b c c j j e e e q j j e j j 5 e e j j j e j j j j j 0 q e q : ; O     ",
"j c k b b b b c b D b c n x j n b c b v n n c c j j c j x b v c U v j v j j b c j c c e c c c v c j c c j c j j j v c j 0 : O . ",
"k k k b n b b c $.J c c c x v D b v c j b j c c c c c j x c c c b D v b c n b c v W b b c b b b v c c c W n n n W W W W b 0 > ; ",
"c z z b b b c c v c x v c J y.p.P c b c j k T c j n c k j x c c b D v D ! T b b W b b b U n b b W b b z W n n n b b k b b v e 0 ",
"c z z n n n b n c c c j n n 3.f.I c c v b z z c j n c k v c c c n ;.9.b P ! v c n W W b c E m c b b n n G c n n W W W n b P c e ",
"b c T n c n b n v n c j n W D ;.n c c b b c b b c c j c c c c v c 3.s.z b b b c v W m c U c m m W W n W ! n n n n ! W n 9.2.c c ",
"b b b n c b b x c n b x n n n b n c c c b b b c c c c n c n c c c r.u.U c c c V v n c c c E c m n n W G n n ! n n n b F w.$.j b ",
"n b b c c b n b n b b n b n G b G W c j j n n n c c c Q W c W W n e.f.z T n n ! n W m c E c m E T c ! n n n n W Q n n ! 4.v j b ",
"n b n n n n b c W b b W b b b Z 1.c k c c c n n b b b b W W b W n f.r.b c b b b T c c n z c n W z b b b n b V ! Q n n n w.P j c ",
"G b G ! b b b b c v n n n c b Z 2.c k k b b b n W n b b b v b W ! h.9.W W b b W n c c c W c W W z b b c b n b ! n n n n I F v e ",
"v H n n b W b b c c b n b c b b 3.n z z b n n n b b b b b b W W G g.9.n W n b c c c c W c U b z z b b c v b V Q b b b b 2.c j e ",
"v n c v b b b W n b c c n v v b 2.n z z k n W V b b b c b Q W b ;.x.2.b b W b c c c c c c k c z z U b x x j c b b b b b 2.:.F c ",
"c n n b b b c v b x x b n b b n 2.b z z z T Q W b ! n b n v n W I l.$.b n n c b c c k k c z z z z z T b e j c x b b v c S D D v ",
"c c b n n b c b x c n x c b b n P E z z z z n b b W W W n n n c q.b.<.c n n c c c T c k z z z z z z c h e j x b j x c v C c c j ",
"x x c n n b b b x b G b n b b b W W z z z z U U b n ! n n W b b 4.X.4.b n b c c c k k z z z z k z z z v j j c b b b b V S C j q ",
"j c b n b b n b b n b b b b x b b U z z z z T v b b n ! Q b W b P 6.q.n b c c U k k k k k z z z z z k j c x j b b b b c v v j e ",
"x x j b b x b n b G c n b c b b n b k z z z k n c c v P G c W b n c c c W c c k z k k h k k z z z z z j j b c b b n b x b v v j ",
"c j c b b b b b n n v c c c P >.n b k k z z k c c c c V n b c c c c c c c c x c k z z k k z z z z z k k j b j j c b x j x v b j ",
"b c n n b b b b m c m c b ! >.>.n b b k z l k b c j b b W c v c c c k k c c c c z z k k h j j h z z k b b j j j j b b b b v j e ",
"j x b b b b b Z $.m m m n ;.r.;.b b c c k l z b c c c c v n b W c k c c W c c c c z h h q > q k h l k c j j j j x x b x x x e j ",
"q e x v b b x b J J c c c =.r.;.b b v k h l k n c b c c b b b n c k k k z c c v c c c k k j l k h z b c c j j j j b v n x x b e ",
"> e j j j j x b v J J c J y.=.n b W b b k l k v b c b v c b W n W k z z c c k k c c c T z k l l k b b b n n j j j j j j v v x j ",
"$ 4 q 0 e x x b v C J C =.e.>.c v Q b b k h b x c b b b Q W b n m z k z c c c c k c c z k k z z c b b j c b c j q e c j v v b x ",
". O ; ; 0 j e x v A *.=.r.=.v c c b W G n k b j v b b b b b b b U z z z c W c W c c U W b j k k b b b b n b b v j j j v k b x e ",
"  . o $ % ; : w g ( 4.4.{ Z c c b c V v b z b b c b b b c b b c c U z c W n b b b v b j b T b b b b b v Q W b c j j e j c c j e ",
"      . . o O : s ( ( ( Z x v n b v P 2.n n b D x b j j c c b b c U U W c n c b b b b b b b c b k v k b h v c c j j j j j c j 0 ",
"            . o 6 p a a j v ;.;.I 2.3.r.,.2.G P v v e j j c b b c c k v n c n b n n b c b c k k c j v x v b v b j b b b j j e e ",
"              . & 6 w a =.i.a.p.f.f.s.j.l.g.g.w.( a v v v v j b x c c c b n c v c n b c k c b k c j c c b Q b b z v b v v k j j ",
"        X X X @ - t ( { X.+.+.n.n.b.c.n.n.l.x.x.p.g $.$.d w w e x x b b b b j c b b k c b v k z k j x x x b x x b b z b b Q c j ",
"    X X X # < 3 i  .o.+.n.+.+.@.@.@.n.@.n.n.b.b.b.f.f.k._ f s a Z v x b c j j j c b c x k b k k k x x x j x b c b V V b k b b v ",
"    + # # 2 ~ ) X.n.O.n.+.+.+.@.M.B.@.V.m.m.n.b.b.n.v.v.x.] ` ` g $.x x b e j e x b x c b b b k U b x j j x b c v b W b b j j e ",
"  X # 2 ~ ' O.+.+.+.@.@.+.+.N.N.B.B.B.B.M.V.M.m.m.n.n.n.m.l.f.k.` 4.S x b b x j e j j x c b b c k b x e x x x j b b W j j j j j ",
"X @ 3 ~ ..+.+.N.@.@.@.N.#.#.B.B.B.B.B.B.B.B.#.#.#.#.#.#.#.@.....k.y.$.D b b x j q 5 j c b x j c b b x e j c x c b b j j n j j e ",
"@ 2 ~ ..O.+.m.m.@.N.@.@.#.#.B.Z.B.B.B.B.#.B.B.B.#.#.B.B.#.#.#...l.g.3.P I b b j e 0 e x x c b c b j v 0 j n c c j b c j j q w w ",
"3 ~ ^ ..@.+.+.V.@.@.N.N.@.N.Z.B.B.B.B.B.B.B.#.#.B.B.B.B.#.#.B.@.b.o.{ <.P v x j j x j x x b b n c j 0 > j c k k k j b c c j e 0 ",
"^ ^ ] X.n.m.@.N.N.N.N.N.N.N.B.B.B.B.B.B.B.B.#.#.B.B.B.B.#.#.B.B.n.b.c.<.P b b j x x c x j b b b j j > 0 q k q j k k k W c x j j ",
"` X.b.o.@.+.@.N.N.N.N.N.B.Z.B.B.B.B.B.B.B.#.B.B.B.B.B.B.B.N.#...b.b.O.4.x x c x c c j v v b b b x j q e j j j e j x n k k z b c ",
"{ X.n.+.B.B.V.@.N.N.N.N.B.B.Z.Z.B.B.B.B.#.B.B.B.#.#.B.B.B.B.N.#.@.n.+.4.x d e x j c A ( $.b n b x j j j x e j c b b b k k z k x ",
"{ o.m.n.N.B.N.N.N.N.N.N.B.B.B.B.#.B.B.B.B.B.B.#.B.B.B.#.N.B.B.B.@.@.@.y.v x x b b a.l.&.D n n b j k c x c j x v T b n T k z k j ",
"f.c.@.@.N.N.N.N.N.N.N.N.Z.Z.B.B.#.#.B.B.B.B.#.B.B.B.B.#.B.B.B.B.@.@.+. .v b b Z g.l.&.;.n n b b c v x x x c c c b b n z k k k j ",
"X.m.m.M.N.V.Z.B.B.B.B.B.B.B.Z.B.#.#.B.B.B.B.B.B.#.B.B.N.@.N.B.B.@.@.@.l.v j v 4.p.( v E b b b b c W k v j c v k x x b b j k k q ",
" .@.@.m.@.M.V.N.#.B.B.B.B.Z.B.B.B.#.B.B.B.B.#.#.#.#.#.#.N.N.B.#.@.@.n.c.=.j ( p.` Z v c j x b x n W v b v b v j x b x b x j e > ",
"o.@.@.@.@.M.#.B.#.#.#.#.B.B.B.B.B.#.#.#.@.@.N.@.#.#.B.B.B.N.#.N.@.@.O.c.a.A { 4.=.D E c x b x b v c b b W b b c c b x e e e > * ",
"+.@.@.@.V.M.@.B.B.#.B.B.B.Z.B.B.#.#.B.B.#.@.N.#.#.#.B.B.B.B.N.#.@.+.O.c.l.r.4.$.A Z b c b b b b n k v h b b W v x c c j 0 > ; O ",
"O.+.+.#.B.#.#.B.C.C.Z.Z.C.C.C.#.+.#.#.#.#...B.B.@.@.@.#.#.N.#.N.@.+.+.+.X.r.=.A m c ! n c m b x v b c v W k b c x k j q * $ O o ",
"+.+.@.@.B.#.B.B.C.B.B.#.C.C.#.#.#.+.O.@.@.@.#.B.@.@.B.#.@.@.N.B.N.@.@.+.o.4.;.! G c v b c n b b b b b k v v x c x c q > O o .   ",
"O.+.@.@.#.@.#.C.B.B.B.#.B.C.B.C.#.+.@.@.@.@.#.#.#.B.B.B.@.@.@.N.N.@.+.+.l.;.D v v c c v n n n c b b v x x x c c c c j q o       ",
"v.+.#.#.#.#.C.B.#.#.#.B.C.C.B.B.B.#.#.#.@.#.@.@.#.N.N.B.@.@.@.@.@.+.+.+.g.A v v m b b b n c n n b Q b v c b c b c j k q .       ",
"+.@.#.#.B.B.B.#.B.B.B.Z.V.C.#.#.#.C.C.#.#.C.C.#.@.#.B.#.@.@.@.@.@.@.+.n.l.$.v n b b c n n n n n b b b b b b b n b c k 0 O       ",
"+.#.#.#.B.B.B.B.Z.Z.B.Z.B.C.B.#.B.C.C.C.#.C.B.#.@.#.B.B.@.@.N.@.#.@.@.b.l.4.P n b n c n n ! n b c Q b b b c n b c b c j ;       ",
"+.#.N.B.B.B.B.#.#.B.B.B.C.C.C.#.#.B.B.B.C.C.#.C.B.B.B.B.N.@.B.B.#.#.@.b.s.<.v v j v n c n n W b b b b b b v c j b c c c ; .     ",
"+.#.B.B.B.N.N.B.#.#.#.#.B.#.C.C.B.#.#.B.C.C.#.#.B.B.B.B.B.B.B.B.B.#.+.b./ w e 0 q j c c b b j c b b b b b c c c c b c j > O     ",
"O.+.#.B.B.#.@.B.B.B.B.B.B.#.B.B.#.#.B.Z.B.B.#.#.B.B.B.B.B.B.B.B.#.@.n.} 9 : % ; : > e q j b c b b b b b b c c c c c c 0 , * .   ",
"] o.+.#.N.#.@.#.B.C.C.C.C.B.B.#.B.B.B.B.#.#.B.#.#.B.B.B.B.B.B.B.#.@.n.} 9 - . . o % : ; 5 j c c b b b c c c W c c c c j q ; O   ",
"|  . .+.@.+.B.#.#.#.B.B.C.C.C.C.#.#.B.B.B.#.B.B.#.#.#.#.B.B.B.B.M.m.n.` 6 $ .     O O O : 5 q j b b b b b b b b c c c c j , ; O ",
"y _ { x.+.@.B.@.#.#.B.B.C.C.C.C.#.#.#.#.#.B.B.B.#.#.@.@.@.B.B.B.#.n.X.u & .           . O : 5 j b c b b b c b h c c c c j 0 > % ",
"= 9 f 3.s.n.n.n.#.m.#.M.#.C.C.#.#.C.C.#.#.C.B.B.N.@.@.B.#.#.#.#.M.O.i = .               . o ; 5 j c c c c c c c c c W v c q 0 4 ",
"o & 6 w g } O.n.+.+.O.#.M.#.#.#.C.C.#.#.#.C.Z.B.N.B.@.B.#.@.@.m.O._ y = X                   O * > j c b c b b W n c n W c c j q ",
"  o ; 7 d g  .v.X.O.O.M.m.#.#.#.#.#.#.#.#.#.#.#.#.#.B.#.#.@.+.| ) 8 3 @                         $ > j j b b v c W n n n v ! x q ",
"    o ; 0 d <.d.d.d.v.m.C.C.#.m.#.m.#.m.#.#.#.m.#.#.V.m.@.+._ i r = @ X                         O ; q v c c c c c W W n c c v q ",
"    . & * w d d d.d.d.v.m.m.m.#.C.C.@.@.M.C.#.#.@.#.@.m.O.} r r 1 X X X                         . o : 5 j j b c c c c c c c c j ",
"      $ * : 7 w d d.d.d.v.v.n.m.m.M.m.m.M.M.m.@.+.n.b.[ f t - < @ X X                             . O ; 5 q j c c j c c c n j j ",
"      . O * > 7 a C $.`  .v.b.n.n.m.n.n.@.@.n.v.v.v.` s 9 - & X X                                   . o ; 5 q e j v c j c c c c ",
"        . * * * 7 w w a _ } v.n.b.n.v.l.v.v.f.[ ` f s 7 - o . X                                       . O ; : > 5 j j j c c j e "
};
