/* XPM */
static char *_6400aef01c04bc8dc13e9b867b4e5163GYTJZQWSufnA4Tc[] = {
/* columns rows colors chars-per-pixel */
"64 64 150 2 ",
"   c #373634",
".  c #383735",
"X  c #3A3936",
"o  c #3E3D3B",
"O  c #463C2D",
"+  c #443E33",
"@  c #413F3B",
"#  c #464135",
"$  c #494335",
"%  c #45423D",
"&  c #4A463C",
"*  c #4D493E",
"=  c #50473A",
"-  c #514B3E",
";  c #454442",
":  c #494742",
">  c #4D4A44",
",  c #4E4D49",
"<  c #524D44",
"1  c #514E48",
"2  c #524F48",
"3  c #534F48",
"4  c #524F49",
"5  c #534F49",
"6  c #504F4A",
"7  c #514F4A",
"8  c #504F4B",
"9  c #504D49",
"0  c #504F4C",
"q  c #504F4D",
"w  c #514F49",
"e  c #555046",
"r  c #555047",
"t  c #545146",
"y  c #585146",
"u  c #595346",
"i  c #51504B",
"p  c #52504A",
"a  c #52504B",
"s  c #565048",
"d  c #565248",
"f  c #575248",
"g  c #54514A",
"h  c #55514A",
"j  c #54514B",
"k  c #55514B",
"l  c #56514A",
"z  c #54524B",
"x  c #55524B",
"c  c #57524A",
"v  c #57524B",
"b  c #50504D",
"n  c #51504D",
"m  c #52504C",
"M  c #53514C",
"N  c #52504D",
"B  c #53524E",
"V  c #54514C",
"C  c #54524C",
"Z  c #54524D",
"A  c #55524D",
"S  c #55534D",
"D  c #57534C",
"F  c #56524D",
"G  c #56534D",
"H  c #57534D",
"J  c #55534F",
"K  c #55544E",
"L  c #55544F",
"P  c #57554F",
"I  c #54524B",
"U  c #5B554A",
"Y  c #58544C",
"T  c #58544D",
"R  c #5A554C",
"E  c #5A564C",
"W  c #5B564D",
"Q  c #58544E",
"!  c #59554E",
"~  c #59564E",
"^  c #5A564E",
"/  c #5B564E",
"(  c #5A564F",
")  c #5C574C",
"_  c #5D574E",
"`  c #5D574F",
"'  c #59554D",
"]  c #5E584D",
"[  c #5C584E",
"{  c #515150",
"}  c #535350",
"|  c #535351",
" . c #565451",
".. c #565551",
"X. c #555553",
"o. c #565552",
"O. c #575552",
"+. c #565654",
"@. c #575754",
"#. c #575756",
"$. c #555552",
"%. c #595651",
"&. c #5A5650",
"*. c #5B5750",
"=. c #585652",
"-. c #585653",
";. c #595751",
":. c #5E5950",
">. c #5C5852",
",. c #5D5952",
"<. c #5C5953",
"1. c #5D5953",
"2. c #5D5A52",
"3. c #5E5A53",
"4. c #585855",
"5. c #5B5954",
"6. c #5A5855",
"7. c #5A5955",
"8. c #5B5A54",
"9. c #5B5A55",
"0. c #585857",
"q. c #595957",
"w. c #5B5A56",
"e. c #5E5B54",
"r. c #5C5A54",
"t. c #595958",
"y. c #5D5D5A",
"u. c #5E5E5B",
"i. c #5D5D5D",
"p. c gray37",
"a. c #5D5C59",
"s. c #625A4F",
"d. c #615B4D",
"f. c #615D55",
"g. c #625E58",
"h. c #605E5A",
"j. c #5F605F",
"k. c #676357",
"l. c #60605F",
"z. c #62615E",
"x. c #62625D",
"c. c #636362",
"v. c #646463",
"b. c #676663",
"n. c #656462",
"m. c #6A6A66",
"M. c #6D6D6B",
"N. c #71706C",
"B. c #747473",
"V. c #7B7B79",
/* pixels */
": % 3 U { 0.{ { p.v.9 , X.2 F *.e.Y < < s < - 9 & : < < & + ; > < 5 > : ; , ; ; : , ; ; , > 9 ;.@.B 2 e.[ :.G , > , % & & > t : ",
"> 2 x x { #.; ; l.0.0.; > > < / h.:.*.2 / < < & & q *.u & < & @ > 9 9 > , 5 q , ; , , . % ; ; B , q F | ;.F 2 % 9 * & * # :  .: ",
"& < g > , q , ; , , c.l.y.9 : : 9 Y U 3 5 c $ > , Y / s.e 5 > ; @ : > 9 q ; , q t z g > ; % : 4.: { > F [ g , > Y ) :.; % , b , ",
"> ; 0.@ o q #.; o o i.v.> > 5 % % < y < 3 = & < < *.< c / < < @ % > > : > : < ; > > b x G , 2 G X.X.> 2 x > * & Y / 2.; % > b t ",
"* : , , . ; #.; ; : l.| : O.q ; % % & 3 = & < = + 9 ; : e < > o : r > F q > 9 > < p K z i [ [ p , , , , > * t * x : > @ % % > 2 ",
"; ; : ; o ; ; , , ; t.{ 0.y.i.9 @ % < < & = > + $ : % @ < 2 : < 2 F x 2 : 2 ; > j.K t g : i 8.j.: ; % % $ - z x < < : @ o % % & ",
": ; , , o o , ; ; { > X.-.> : > o > 2 5 < s < = $ > @ & < 3 & > / x > : > : : { 8...t , 6 K K * & > % # % z < [ 5 : % o o % > 2 ",
": o ; ; ; o , , , , o | % o % : @ % > s Y s e & : , > 2 U s.s < > 9 & 2 , % > *.i ; t * & & - z > $ & % : x > > > > % @ o ; ; q ",
"; ; ; ; ; o , , ; ; , i.; > : : % > & x < & = : > % b E x [ x.j., 9 & - > % % % : b , $ & $ * z : * g o % > & : & 3 9 & % : ; , ",
"{ ; : : : : , o ; q t.c.> : : 2 ;.*./ g.3 < & | b % > r x C > t.< & - 9 % @ ; % : g - * * + $ - z  ., o > : > : % > r 9 > & , , ",
", o ; ; X ; ; o o ; , { > > / h.{ -.e.*.< < < < * % $ , b % @ | 2 - < 9 > : > > > t t t * # * z j.@.% , b , , ; % < 3 > & : < x ",
": , : ; X.{ , q X.{ ; , : @ 9 > { F *.5 9 & % < * $ $ G > % : , 9 x > * ; > b K G U t * * & z 8.j.& ; g , > ; % % > * * & > f./ ",
", , , @ 2 B  ./ > B F , ; q ; , 5 9 q / Y > > & t Y * U * & * @.g G x , # > K K < * - $ = - - > g > b > , : , g % % % t > 2 g.< ",
"; ; o ; 2 > : 9 > B  .> : > : , *.1.> 9 2 > $ & t x r 9 r - [ a.4.: > @.G j.8.< - t E K t - z j.> , g , b x > < > ; , : * F *./ ",
"% : ; q *.2 , ; : , 4.g  .> , x *.*.Y & : : % & 9 g r F x [ 2.t - $ t t z < > # * [ j.K t ~ j.j.b b z ;.[ ;.g.g F t 2 % 3 r / / ",
"x > ; ,  .4.X.: o ; B F q ; & & > : > & & < < < Y B x g 2.g.t r < # * & % # & * d < t - 1 @.j.z P x G ;.a.b P [ { *.r : % , 3 x ",
"| F < 9 t G B X . ; : b g > & # > > < < * 3 > 9 G g 8.G 4.[ - y < * - d K - $ < j.K d ) < * 8...* , K C C , t t K K * & % : > K ",
"*.B & > r , ,   o { j.M.u.: , ; > 2 3 3 9 & > : * [ g g 9 $ & > * & - * t t K % @ , t K d.j.i @.& @.@.@.P b K * < * # % & ; * t ",
"F : & & { , % o @ q | | , % % ; > % % < * % > 9 j.2.t - = & - * + & < p * - t , * % 1 p t K < * > > > 8.8.z < & p # # 6 % : x t ",
"*.; ; 9 ; ; , , ; , : ; % , g , > % # : , 9 :.x.x.[ * > & t t % % * - * - K d [ < > * d > & > , ; : : C , < < > * p , , > , k.Y ",
"g > , 9 : ; , : , | ; ; ,  .B > > * > G * , x.* $ > * b 1 * > * * $ # $ < j.- t - t * K > < , : % & : > < * > * > e.x , , : [ F ",
"> / x g { , , ; > @.: | ; b B % : G t t x u.t & & - t g * * & * > - $ # * P t * t t K K > , > : o % > , p , : : F F 2 4., * % % ",
"x & % : : ; , , b C v.C > : % * $ j.u.z m.;.> % # & t * # * $ < [ < > + * [ p - - k.k.8.* & * b . % : : & > & > *.2 ;.u., > % + ",
"9 % o ; > , % { j.@.8.C x > % % - < x.V.x.9 : * & & t t = t K K j.j.z % $ - t - * ) j.b > > t P : & & ; o > : b *.2 ;.c.B ; ; % ",
"# & % % B :   % / G > < Y G > % z x j.x.[ * & * z t = u t j.8.* z t - % # # * - U 2.t < < t * < F , t 9 > ; > * > : 2 q , @ % % ",
"@ % > / 4.F { g 2  .Y - < , , & z C ;.2.p * > z K 2.> t ..1 - & * p * $ # $ $ - ;.[ t * t E * z , 2 G F , * * > x 2 B : o ; @ % ",
": > c s.h.g.x.g : , t > g B : G j., < > > > , - r 2 C t * $ * $ > - - t * # & * < , % & * z P j., & 2 4.> ; > > < x 2 2 > ; % 2 ",
"> < 5 2 > h.[ / t * > 9 g x g [ > > > > : > * < b , g t 1 - $ $ $ $ K E t 6 > * & $ & & % g 2.2.> : > 4.{ : , * 9 9 : > / & > 9 ",
"< 3 c *.| F 5 Y g 9  .@.C [ r # # < > p > , > 1 : > , * > < # # * t t z - K - * % % & % % * b | < C t.@.b B : > t > : # 5 9 & & ",
"< s / y > & B > t *  .;.: P - $ & p : > % * * i < * t G > = * & $ ~ z - 6 z > * : # t B ; @ $ < > b u.G > > : ; x x % % > & @ @ ",
"@ < 3 & & & > > > * ,  ., > > & # & > % 6 < * : r t U  .$ & * < * K > & - t z * * t t.G % # : % @ > , , , z G > C x % : # * % @ ",
"% < < & - * : g * > t , t * & > z * * < p < : % - t & # * < @.x.K t t > - K K ~ , ; > g x @.: o , > > g z : g E P t & % & * < % ",
"* > t t , b : ; b < x r x * $ % z < < E E K * * - * * < & b P < t t z K - t j.E , , b , @.2.> > b C { : * > @.K d.d.% % % $ < * ",
"* * > * & > : % x r 2.k.;.* % ; * - z < - ..K $ t t [ i b 4.& % , - < K K j.j.- : , , : z K 8.t.b b C , > < > < z z < % # % - < ",
"t - * Y G > % < > > > Y ;.# g M.> > j.K * * > z E d.d.> P , z > # * < t 2.K d < , b < b g b b C C [ b P , % ; * > p K & p * & < ",
"< - * ;.;.b , % % * , t ;.t B m.j.; 6 K $ < , 8.u - < > z 2.x t * - @.~ K b ; * < , C 2.P C b z @.j.z t < > : & * < z * p p > * ",
"< - r / G / x % $ & ;.:.G x * b.j.p < * # z 6 - u < - t t E < > t * t P 8.@.: : % : K 2.} 6 ..[ z j.d x t < : , > > 9 * t [ z t ",
"U * > t ) Y r r [ Y f.;.> : [ t.d.K t % * K - - - < t $ t t > * * # > b > < @ ; % * C z 8.6 1 E k.K @.4.% : K i > * > 9 [ [ t * ",
"t t x t * F * < U < r > * C t.| < K [ : 6 K t - - - - < * & * : * > C j.: , | > % $ : * i 6 K j.x.t 8.& * 6 , < * % b [ [ [ t - ",
"> t > $ & 9 * * & > t g b , , , * t > , z t 6 K - & # & 9 & # # & t K < : t > & > > < & , b z K t - 2.i < : > & : o ; x ) x t > ",
"- t % * & $ & * * r 3 t. .% , g & & % 9 * < G g * * $ & t r * > z * * * > > p & # < : % > * : * < < t t < * g { b % > G r > * & ",
"% * - t < - * > < 2 / e.j.B { G * * % # * y / B x * < = - x & > t $ - - * % * % & : p t t t - p - : t t > F 4.4.: , : , < & : & ",
"& g t * u U U r t x / h.B.j.;.G t t % & < ) x > r r Y - r * & * t > t t * < < * & t E d * t < < ; ; * : % , 4.; o > , : < * 9 $ ",
", g P * t G Y < Y 9 , , b.4.u. .2.< % * < y r U r t - > a.b & % > & < 8.E t * * t [ K * t b b : @ & > 9 r x u.*.X o G , c < * > ",
", t / , : , t % * 3 & , , u.N.F < - & 9 < y U U U Y < , B B % o @ # p j.> t < & > * > > t > b % b g : < , g , , >   b ; 3 Y & * ",
"& x 8., % , % : 9 * % G X.u./ x % < y 3 - - u f.f.;.t % > F , % @ $ , 8.i < > * & t x t $ , > t z , % i g ; , B e.; , > 9 Y r > ",
"9 x t : : : g * Y 9 & G x.< & = > 9 < & - - < y F | , & & & r & p j.z > K * ; , x t j.2.b b : , z b , v.{ , > : , ; > , G x r > ",
"> t x , , , @. .: & > x.f.9 < & O < < = 3 < > > > , > > & x x < K t P ..i < & % < > 2.@.% : * % , @ @.; o ; > *.| B x.[ r r x x ",
", *.*.g > , b G % , > E t % $ % & * * * * * > : ; > i.B , Y / 3 g , > @.Y & & % > B : : > @.*.: b & , o   ; { @.; ; F 2 < g @.B ",
"C , :.B b < > , , C Y t x * % $ = & * ; : & > < & B @.| t * & * B G { , / - % < g { F > > , , | , > : ; ; @ , X.> o % : g t g b ",
" .> B t.x.g t , B < * x 9 > & & $ & : c :.9 Y x > < & $ & & * > : , / : * - , * , F F 9 , | , t.j.: @ : ; 2 { F e.> : *.t x 4.B ",
"% > B *.> : g 8.t * % : & - & < & < 3 3 g.Y Y r $ $ O $ % * b.B , 9 * * > > t : , g q o @ 2 , { i.: b < ; F @.B > > < 2 g g , g ",
", B 9 & o % B G t , * * & & = r & < 3 & < - $ = = - $ * * B t.B g t r Y  ., > a.2 ; o . ; q ; ; @.b.C ; > % ; , * * * < t.G < b ",
" .> % % o : G * , < & * $ * r - - t - & & % # O * [ t , t.; @ : * = < U 2 r : ;.> @ : ; , { ; ; , v.B : : : % * > > > x G B > b ",
", > : & % 9 < : : % X $ : * * r < U - * r x & # > r x B @.b ; # & & u U > 9 , q ; ; , , , ; , , , j.B , , : & % > : a.G 9 t.{ B ",
"B : , : 9 r & * > & * , B & t U - - r ;.- * $ * x < x x.{ | , g y r G - , b { ; ; @ ; , ; ; o , , ; b : , > & % z 2.g z > b g b ",
": C < & t g > * * *  .B : * > - & # : > & $ $ r 9 F / -.*.9 < : 3 9 % & * B > : o : , , o ; o o > > 9 x 3 3 & % x ;.@.& > b C C ",
"b b % > t [ t - : P G * , - j.[ % : x & & # % t /  .2 % > : % & & > & & g { o ; 2 F ; , , ; , o ; < : : & x : & < t > b z 4.@.b ",
"8.z & : x x < t < @.8., a.N.m.m.: : & , , < / < [ , 2 < ; > : < > & < Y , ; . ; 9 { ; o ; o , ; { 2 ; < x F : > g & < > C t.a.@.",
"2.C z g < t r > C z g ; ;.V.x B ; & > > : , * x @.: 5 F > c < & 9 Y / a., , ; ; q : o , o ; ; ; : : % 2 Y : > < z g > ; @ < @.t ",
"< b t > - * x ) %  .> B t.@.9 % X > 2 : % : : - , ; B , < 3 $ $ B { e.{ : , o o : ; ; o o : { : o : : > , & 9 f.j.z > : > @.G b ",
": C b t 2.x t E @.: % B @., ; % ; : , > r 9 > < , : x x < $ & < ; , F ; @ ; o o o o : o , { 1.> : : : q x , > ) [ > & b @., # % ",
"& > < P a.8.> g , % > > , B > , : : < 9 , < & < 2 Y [ 9 - % B / , / F ; ; ; @ @ ; X o ; ; , h.: : < : &.k.B t t E z | j.C * % & ",
"% : t < % ;.u.u.m.a., > , x , ; x g & & r x & < 9 3 [ - > ; > , :.x : : ; ; ; : , ; o o ; , , , : > 5 *.g.x Y t z 2.C g > * t * "
};
