/* XPM */
static char *_e431e4147784ebeb71956fdf21224aclc0EOWlj3HsUiPzD[] = {
/* columns rows colors chars-per-pixel */
"64 64 238 2 ",
"   c #77382D",
".  c #753F36",
"X  c #4E5B23",
"o  c #575D28",
"O  c #77453B",
"+  c #725C38",
"@  c #5A6029",
"#  c #61622D",
"$  c #6A6433",
"%  c #76663A",
"&  c #7D4D41",
"*  c #6E5D45",
"=  c #7B5447",
"-  c #7A6F45",
";  c #6E7F42",
":  c #862E23",
">  c #8C2F22",
",  c #902F23",
"<  c #8E3123",
"1  c #893B2C",
"2  c #963325",
"3  c #933628",
"4  c #9D4526",
"5  c #91422F",
"6  c #994129",
"7  c #8C4533",
"8  c #874934",
"9  c #8B4932",
"0  c #954533",
"q  c #9A4633",
"w  c #914639",
"e  c #934B3D",
"r  c #9B493E",
"t  c #8D563D",
"y  c #A5482A",
"u  c #AE5C28",
"i  c #A65A37",
"p  c #AB5B39",
"a  c #B15E3D",
"s  c #936C37",
"d  c #9B7837",
"f  c #AA662B",
"g  c #B1622B",
"h  c #A56B33",
"j  c #B16F35",
"k  c #A37539",
"l  c #D74D23",
"z  c #D85326",
"x  c #D9562A",
"c  c #DB5E31",
"v  c #DB622D",
"b  c #CA7B2B",
"n  c #D87D2B",
"m  c #DE6734",
"M  c #C57935",
"N  c #CC7C35",
"B  c #C47639",
"V  c #CC7B3B",
"C  c #D67D36",
"Z  c #D17F39",
"A  c #E16E39",
"S  c #E2773A",
"D  c #9C4E41",
"F  c #82584A",
"G  c #9C5244",
"H  c #975845",
"J  c #855F50",
"K  c #A85B49",
"L  c #B45B47",
"P  c #846842",
"I  c #8A6B46",
"U  c #8E6D49",
"Y  c #976749",
"T  c #946D4C",
"R  c #996D4E",
"E  c #88794A",
"W  c #97734B",
"Q  c #886957",
"!  c #9C6651",
"~  c #9C6D52",
"^  c #89785D",
"/  c #9D7152",
"(  c #95775A",
")  c #B8664B",
"_  c #B36A4B",
"`  c #A37949",
"'  c #A56553",
"]  c #A56B55",
"[  c #B56B54",
"{  c #B96A57",
"}  c #A27354",
"|  c #A5775B",
" . c #B37C54",
".. c #B97558",
"X. c #8C7561",
"o. c #8C7B66",
"O. c #8F7D68",
"+. c #937965",
"@. c #9A7C63",
"#. c #937E69",
"$. c #A97D62",
"%. c #C5744A",
"&. c #C8724A",
"*. c #C57A57",
"=. c #D5795B",
"-. c #E07E40",
";. c #C77661",
":. c #D97961",
">. c #E37C62",
",. c #7D8F3F",
"<. c #6F8042",
"1. c #738244",
"2. c #7B8547",
"3. c #768846",
"4. c #7C8849",
"5. c #7B984D",
"6. c #6E9B57",
"7. c #759552",
"8. c #58A45B",
"9. c #68A85C",
"0. c #73A758",
"q. c #5CAC62",
"w. c #66AD62",
"e. c #8C8838",
"r. c #958639",
"t. c #A88C3B",
"y. c #B88E3C",
"u. c #B1953E",
"i. c #DB891C",
"p. c #F0970B",
"a. c #E4841A",
"s. c #E48E1D",
"d. c #F28E1A",
"f. c #EA9416",
"g. c #F39315",
"h. c #F9A207",
"j. c #CD822E",
"k. c #D98527",
"l. c #D3813A",
"z. c #D78739",
"x. c #C9983E",
"c. c #DA9332",
"v. c #DF9933",
"b. c #D9973A",
"n. c #E78727",
"m. c #E49025",
"M. c #E58238",
"N. c #E39B33",
"B. c #E29D3C",
"V. c #EA9B3B",
"C. c #D9A33A",
"Z. c #ECA235",
"A. c #E5A13A",
"S. c #EBA23B",
"D. c #858748",
"F. c #8B8F4F",
"G. c #98874B",
"H. c #89945A",
"J. c #8D985E",
"K. c #AB8A45",
"L. c #B29145",
"P. c #BB9542",
"I. c #AB895A",
"U. c #B78756",
"Y. c #BD845A",
"T. c #B48D5A",
"R. c #BD9154",
"E. c #8E8264",
"W. c #968467",
"Q. c #95826D",
"!. c #A18665",
"~. c #A98765",
"^. c #AC8A6B",
"/. c #B18A6D",
"(. c #B49373",
"). c #CA8849",
"_. c #D28846",
"`. c #C79743",
"'. c #C6944E",
"]. c #CB964A",
"[. c #D79643",
"{. c #D59A42",
"}. c #C18658",
"|. c #CB875A",
" X c #D6885A",
".X c #C29351",
"XX c #C89058",
"oX c #D69358",
"OX c #E78843",
"+X c #E79B45",
"@X c #E2895E",
"#X c #DAA34D",
"$X c #CEAD56",
"%X c #DFB55F",
"&X c #D2BA5D",
"*X c #E7A244",
"=X c #E0A750",
"-X c #E6AC53",
";X c #E2B457",
":X c #E3B659",
">X c #EDBD5D",
",X c #F1BE5D",
"<X c #D08660",
"1X c #E78861",
"2X c #F28963",
"3X c #D1BC66",
"4X c #DBBA76",
"5X c #E6BB66",
"6X c #E7BE70",
"7X c #EEC166",
"8X c #F0C160",
"9X c #E9C376",
"0X c #B37FBF",
"qX c #9F4AD8",
"wX c #A75BD3",
"eX c #A968C9",
"rX c #AD72C5",
"tX c #B47BC5",
"yX c #B169D4",
"uX c #B788BD",
"iX c #BE97B7",
"pX c #D6BB8D",
"aX c #C09FB4",
"sX c #CCAFAD",
"dX c #CBB6AB",
"fX c #C8A8B6",
"gX c #D4BAB7",
"hX c #DDC596",
"jX c #E7C787",
"kX c #E2C999",
"lX c #CFC1A8",
"zX c #D0C1A6",
"xX c #DAC9AA",
"cX c #DBCBB1",
"vX c #E0CCA4",
"bX c #B883C3",
"nX c #C392C6",
"mX c #C9A1C0",
/* pixels */
"o.o.o.o.o.o.o.o.Q.Q.Q.Q.Q.Q.Q.Q.#.Q.Q.Q.Q.Q.#.#.O.o.o.o.o.o.o.X.D w D D r D D D r D r r r r r r r r w w w w w w w D r D r r r r ",
"o.o.o.o.X.o.o.X.o.Q.#.#.Q.Q.Q.Q.Q.#.Q.Q.Q.Q.#.X.o.o.o.o.o.o.o.X.D w w D 3 D r D r D r r r r r r r r w w w w w w w w r D r r r r ",
"o.o.o.Q & X.o.& Q F & & Q +.F F Q +.J F J +.J . & Q o.o.o.o.o.X.e w w H ' G D ' ] G ' ] ' G ' K ' ' ' G H ! D ! ] H ' ' D r D r ",
"o.o.o.X.O Q Q . X.& F Q Q 8 F J 8 J . F J +.O F = = o.o.o.o.o.X.e 7 e !.(./.[ /./.$.$.(.$.G (.] ' (.^.~ ^.^.$./.^.~ (.(.[ r r r ",
"o.o.o.o.= = = F +.F F #.#.O Q +.Q Q O X.o.Q.= O = X.o.o.o.o.o.X.e w D ~.$.(.$.$.$.$.D ^.G ' (.$.e ~.] ] ^.} (.^.$.H /.( H w e r ",
"o.o.o.o.= O O Q #.. F +.#.F X.F . Q . . Q o.X.= & Q o.o.o.o.O.o.D r D /./.( $.$.$.( D !.H | ^.~.K $.] ' ^.] /./.$.H ~ ~.! w r r ",
"o.o.o.o.X.. . o.#.F J #.+.F J J   F O Q Q.#.Q Q = . - o.O.- E.#.G D D /.~ r $./.~.~ D ~.t $.^.(.G ~.] ' (.^.~./.$.' ~.^./ w r r ",
"o.o.o.o.o.= & #.+.F . & X.J . . . F F . F #.F O & & o.o.O.uXQ.Q.D r r ] G r G $.( t D R e Y t T H ] H G | $.H ] ( Y R / F w w r ",
"o.o.o.O.#.+.+.Q.#.Q Q X.o.X.Q Q X.o.X.X.Q Q.Q.Q Q X.O.Q.Q.Q.Q.@.D D r w r r r w w w w 7 w w w 7 w r r r r w r r r w 7 w w D w w ",
"Q.#.Q.Q.Q.Q.Q.Q.#.#.Q.o.o.o.o.o.o.o.Q.Q.Q.Q.Q.Q.Q.Q.Q.Q.Q.Q.Q.@.G D r D r w 7 w w w w w 7 w w w w w r r r r r r r w w w w 1 w w ",
"@.@.@.@.@.@.W.@.$.@.@.X.( ^ ^ ( ( ( @.@.@.@.@.@.@.@.@.@.@.@.W.( L a a a a i i i i i i i i i i i i p a a a a p i i i i i i i i i ",
"} } } } } } } / | ] } ~ R R R ~ R R } } } } } } } } } } } | } _ V Z N V N M M M M M M M M M M M M V Z Z Z V M M M M M M M M M V ",
"} } } / U I U / T W / / ~ ~ T I / T / W U U T } R T / / / } } } M M j j.l.M N M M M b M M M j M M l.l.Z Z Z M M M M M M M M N V ",
"} } / T X o $ % X @ % T $ T P o U # U # @ X $ U o X # T R R / ` V M j.k.i.M b b b b j.M j.b k.i.N k.l.k.Z k.k.M j.b j.i.M M Z Z ",
"} / R I X T / % $ E @ I o W U o U @ U W $ $ ~ % X P o T R R R ' V l.N f.k.i.i.j i.b f.N p.b i.i.k.f.k.k.V s.s.i.i.b f.i.C B Z Z ",
"} ~ R U X $ T % o # o I @ R W o U @ U } % $ ] I X $ I T R R R ` l.V l.p.k.s.j.b i.k.p.s.h.k.i.i.n.s.p.&.k.s.s.h.s.b k.n ) V Z l.",
"} / R T X o P % X o o P o Y W o U @ I | $ % } W s o o T ~ ~ ~ } M M Z p.a.&.k.N m.k.p.h.h.k.p.k.) f.g.V n.m.n.m.h.n N s.k.V Z Z ",
"} R ~ T o % ~ % o T X - # $ % @ / # % | % $ | I # % X T / / } ` M M N g.) %.m.d.g.V f.m.s.b i.) N p.C s.k.s.i.B f.n s.g.k.&.Z V ",
"} / R T o P ~ P o T % P P o $ U } $ P } s % / W $ @ % } } / ~ R j V M j ) l.V B %.) %.L L K ) ) N %.) %.) ) ) ) j L %.&.) B M M ",
"/ } R R T T T T T R R R ~ } } } } / / / T T R R R R / / ~ T T / M M M M N Z l.&.V N V %.B M j M N V V V V V V V B B V B V M M M ",
"} } } R R R R R / T ~ / } } } } } } ] ~ T ~ R T T T R R R T T / j V M M Z C Z Z Z Z Z Z M M M M N l.Z l.l.l.z.N N N l.N M M M M ",
"q q q q 1 0 0 1 5 5 q q 0 q q q q q q q 0 1 5 5 5 5 5 5 5 5 5 q {.=X#X#X=X-X-X-X-X-X-X=X#X#X#X#X#X-X-X-X-X-X-X-X-X-X-X-X#X#X#X#X",
"2 2 2 2 2 2 2 , < 2 2 2 2 2 2 2 2 2 2 2 2 3 , > > , , , < < > 6 #X;X%X%X5X,X6X,X,X,X5X:X3X4X4X3X6X9X9X9X9X9X9X9X9X5X:X>X>X;X;X;X",
"2 2 2 2 2 2 3 7 3 5 0 1 1 7 7 7 7 3 7 9 7 1 8 1 < < < < > 2 > 6 #X;X;X;X,X6XkXkXsXsXpXpXpXdXdXdXsXdXgXcXgXxXvXcXcXpX4X4X9X5X;X;X",
"2 2 2 2 2 2 t P.t W x.y.D.`.P.- L.t s `.G.G.x.k 5 > , > < < < 6 $X;X5XhXkXvXcXgXyXwXbXeXdXaXuXuX0XuXyXmXyXmXtXnXlXlXzXzXxXxX%X%X",
"2 2 2 2 2 3 k A.U k L.P.L.P.L.L.x.8 k `.* K.u.E O > < , < < < 6 #X;X5XvXxXcXcXgXyXuXwXeXdXaXrXuXtXtXwXyXyXtXyXtXdXlXzXzXhX9X;X;X",
"6 3 2 2 , < t.P.` d x.`.G.`.`.G.P.8 k b.P % t.s   : > > > < < 6 -X>X,X7XkXvXcXgXwXeXrXeXdXiXrXiXrXrXwXqXyXmXyXnXlXzXzXzXjX8X;X;X",
"2 2 2 2 > 8 x.x.P.G.`.s d x.t + `.s W L.* s r.y.O : : > 3 2 2 y ;X>X5XkXvXcXcXgXyXiXfXeXdXuXuXaXrXrXtXyXyXnXnXwXfXzXzXzXzX7X:X;X",
"2 2 2 > , 8 t.U K.F.` 3 s K.1 8 P.L.D.x.W E y.k < < < < < 2 2 y -X5X,X9XkXvXcXgXyXlXdXwXrXuXeXeXrXeXfXdXyXnXyXyXdXlXhX4X5X>X;X;X",
"2 2 2 , > 1 8 1 7 7 5 2 1 7 3 3 8 7 8 7 O 1 O 5 < < < < < 2 2 y -X,X,X,X8X9XvXcXgXcXcXfXiXaXiXuXsXsXdXcXnXlXgXgXlXlXpX:X>X>X;X;X",
"2 2 2 , > > > < 2 2 2 2 2 2 2 2 > > 2 2 , , , , < < < < < 2 2 4 -X8X,X,X,X8X7X9X9XjXhXjXjX4X4X4X4XhXhXkXxXxXxXxXhXhX9X7X8X:X;X;X",
"y y y y 4 4 4 4 y y y y y y y y 4 4 4 y y 4 4 4 4 4 4 4 4 4 4 g $X&X&X&X3X&X&X&X&X&X&X&X&X&X&X&X$X$X&X&X3X3X3X3X3X&X&X&X&X$X$X$X",
"v.c.c.c.c.c.c.c.c.v.N.N.N.N.N.N.c.c.c.c.N.N.c.c.c.c.c.c.c.c.v.b.0.w.w.w.w.w.w.w.w.w.w.w.w.w.q.w.w.w.w.w.w.w.w.w.w.w.w.w.w.8.9.8.",
"v.b.v.v.v.v.v.N.v.N.N.Z.Z.Z.V.N.v.v.c.v.Z.Z.N.v.v.v.v.N.v.v.A.C.w.q.q.q.q.q.q.q.q.8.q.q.q.q.q.q.q.q.q.q.q.8.q.q.q.q.q.q.q.8.8.8.",
"v.v.v.{.b.[.[.[.b.b.b.*X*X*X=X[.[.b.[.[.+X*X[.b.b.[.b.[.b.b.v.C.0.q.q.q.q.7.D.7.5.7.5.D.7.7.7.D.6.4.F.4.5.,.3.,.9.D.4.q.w.8.8.q.",
"v.v._.L [ L ) [ ) oX[ <X;.|.;...) ..) *.) ..L [ ..[ _ ..K [.v.C.w.w.q.w.w.k g h r.k h f h k d g d f f h s f d u h f f 0.q.q.q.q.",
"Z.N._._ XX_ )..._ ..L |.{ L *.{ [ ..{ <X{ [ [ [ [ K |.[ ..[.v.b.9.q.q.q.8.h 5.G.r.h f e.e.d d g g u f 4 d s e.f h h r.9.q.q.q.q.",
"Z.Z.*X[  X%.).) K *.) |.L L &.;.) *.[ <XL ..K [ { [ *.oX) [.N.C.0.q.q.q.6.h 5.E d k f F.F.k d g u u f f s f e.4 d W h 9.q.q.q.q.",
"Z.Z.oX) *.*.|.*...{ L *.) ) %.*.{ { *.|...{ [ { { { |.|._ [.Z.C.9.q.q.q.9.h f h j h k g d f f f u u g f f f s f f f u 6.q.8.q.q.",
"Z.A.+X%._.oX#XoX<X*.oX X X|.oXoX%.<X&.|.<X<X|.|.|.|.*.|.%.*XZ.C.9.q.q.q.q.5.r.5.r.e.5.r.5.e.r.F.r.r.e.d ,.e.e.,.e.e.r.w.q.w.q.q.",
"Z.Z.Z.S.Z.Z.S.S.A.A.Z.A.A.Z.A.A.*XS.Z.A.S.S.S.S.S.S.S.S.S.Z.Z.C.0.q.q.q.q.q.q.q.q.q.q.q.q.q.q.q.w.8.8.8.8.8.8.q.q.q.q.q.q.q.q.q.",
"Z.Z.Z.Z.Z.S.Z.Z.Z.Z.N.v.v.v.N.v.Z.Z.Z.Z.Z.Z.Z.Z.Z.Z.Z.Z.Z.Z.Z.C.w.q.q.q.q.q.q.q.q.q.q.q.q.q.q.q.q.8.8.8.8.8.q.q.q.q.q.q.8.8.q.q.",
"u.u.u.u.u.u.L.u.u.u.t.t.t.t.t.t.t.u.u.u.u.u.L.u.u.u.P.L.u.u.u.L.J.J.J.J.J.J.J.J.J.J.J.J.J.J.J.J.J.J.H.H.H.H.J.J.J.J.H.H.H.H.H.J.",
"3.1.3.3.3.3.3.3.3.1.<.<.<.<.<.<.1.3.3.3.3.3.3.3.3.3.3.3.3.3.3.4.Y.}.}.}.Y.Y.Y.}.Y.}.}.}.Y.Y.Y.Y.Y.Y.Y.Y.Y.U.Y.Y.R.Y. . . . . .Y.",
"3.3.3.3.3.3.3.3.3.3.1.<.<.<.; 1.3.3.3.3.3.<.1.3.3.3.3.3.3.3.3.D.U.Y.}.Y.Y.Y.}.Y.Y./.}.Y.Y.Y.Y.Y.Y.Y.Y.Y.Y.Y.Y.Y.Y. . . . . . . .",
"3.3.3.3.4.R.R.G.T.XXG.E I.E 2.R.XXG.T.W K.I.U.I.K.XXG.3.3.3.3.4.U.Y...}.Y.z.m.z.z.m.j. .).z.Y.k._._.).z.m.z._.m._.l.i.l. . . . .",
"3.3.3.3.F.1X1X@X1X:.~ G.2X` K.1X X:.@X . X=.=.' @X2X=.D.3.3.3.4.U...}.}.XXg.M.d.n.n.n B k.g...f.n.n.M.g.M.n.n.n.;.n.n n .. . . .",
"4.3.3.3.D.1X<X1X1X X^ R.2X*.U.1XE ( @X=.@X=.@XW Y.=.| 3.3.3.3.D.I.}./.}.).g.&.g.M.n.a.&.i.n %.i.p.d.n.d.=.-.M.g.=.k.n &.|  . . .",
"3.3.3.3.D.2X:.{ @X;.^ oX>.=.R.1XG.I. X=. X=.=.U ` =. X2.3.3.3.4.U.Y.Y.Y.).g.-.d.n.a.n B a.n V i.n p.n g.-.d.n.n ;.V n a... . . .",
"3.3.3.1.2.1X/ 4.<X1XI.1X>.2X .1X1X=.@X[ =.=.>. .|.1X>.E 3.3.3.D.U.Y.Y.Y.}.d.n.n.S S n n n n n k.&.a.S d.d.d.M.d.B n.n n .. . .U.",
"3.3.3.% ; ~ - 1./ ] ] ] E | ( ` [ ^ / U ~ ! ] ! ^ [ ~ 2.3.3.3.4.U.Y.Y.Y.Y.*.&.;.*.{ { ;.&.*.{ ..{ *.;.=.=.;.;.*.*.{ &.;. . . .Y.",
"3.3.3.3.<.; 1.1.1.<.1.1.3.3.3.3.1.<.; <.; ; ; ; <.1.3.3.3.3.3.4.I.Y.Y.Y.Y.}. . . . . . . . . . . . . .Y...Y.}. . . . .|  . . .}.",
"3.3.1.<.<.1.3.1.<.<.1.1.2.4.4.3.3.1.1.1.<.<.1.7.3.4.3.3.4.4.3.D.Y.}.}.}.}.}.Y. . . . . . . . . . . .U.}.}.}.}.}.}. .U.Y.).}.}.}.",
"E.E.^ o.^ E.E.- ^ o.^ ^ o.E.E.Q.W.E.o.o.o.E.E.W.E.E.W.W.E.Q.W.W.[.B.B.B.B.B.v.b.b.b.b.c.b.c.c.b.b.b.B.B.B.B.B.B.B.B.N.B.B.B.+XB.",
"E.o.o.o.o.o.o.o.E.o.o.o.Q.Q.Q.Q.Q.Q.Q.Q.Q.Q.Q.Q.Q.Q.Q.Q.Q.Q.Q.!.B.Z.Z.Z.Z.Z.N.c.v.v.v.v.v.N.N.N.c.N.Z.Z.Z.Z.Z.Z.Z.Z.Z.Z.Z.N.Z.Z.",
"o.o.o.o.o.o.o.o.o.o.o.o.Q.Q.Q.Q.W.Q.Q.Q.W.Q.Q.Q.~.W.Q.Q.Q.Q.Q.!.B.S.Z.Z.Z.V.B.B.c.B.v.b.V.S.S.V.A.V.V.Z.S.V.S.V.S.Z.V.S.Z.Z.Z.Z.",
"O.o.o.o.O.( K.!.W.I.I.O.!.~.Q.~.T.I.T.R.'.!.R.I.XXT.Q.Q.Q.Q.Q.!.B.Z.Z.Z.V.z z C c _.x m z -.c z S S l m M.m m z OXc l M.Z.Z.Z.Z.",
"#.o.o.o.O.L.]..X].].].W..X{.W.T.R.T.'.].R.R.'.T..XT.Q.Q.Q.Q.Q.!.B.Z.Z.Z.S z M.S z S z c m +Xz A x m m z A c x S +Xl m M.Z.S.Z.Z.",
"Q.#.o.o.O.R.'.T.].W.].T.].{.T.T.R.R.'.'.'.!.'.].{.T.Q.Q.Q.Q.Q.!.B.Z.Z.Z.A v *X*Xl l z c l OXz z v m z z S c x x +XS x V.Z.Z.Z.Z.",
"Q.Q.Q.Q.Q.I.'..X].T.].T.{.{..XT.R.R.R.~.'.R.'..X].T.Q.Q.Q.Q.Q.!.C.Z.Z.S.S c M.S x S x c m +Xz A x v m x A c x S OXA x m S.Z.Z.Z.",
"Q.Q.Q.Q.Q.]..X]..X{.#XT..X^.{.R.'.].T..X].'.'.~.T..XQ.Q.Q.Q.Q.!.A.Z.Z.Z.V.z l M.m OXm A x S m OXm A S A S A m z OXc l M.S.Z.Z.Z.",
"Q.Q.Q.Q.Q.~.'.T.!.'.].T.!.Q.I.!.T.I.Q.W.R.I.~.Q.!.T.Q.Q.Q.Q.Q.W.A.Z.Z.Z.Z.V.S.Z.S.S.Z.S.V.S.Z.S.S.S.S.S.S.S.+XV.Z.S.Z.S.Z.Z.Z.Z.",
"Q.Q.Q.W.Q.Q.Q.Q.Q.Q.Q.Q.Q.Q.Q.Q.Q.Q.Q.Q.Q.Q.Q.Q.Q.Q.Q.Q.Q.Q.Q.!.B.Z.Z.Z.Z.Z.Z.Z.Z.Z.Z.Z.Z.Z.Z.Z.Z.Z.Z.Z.Z.Z.Z.Z.Z.Z.Z.Z.Z.Z.Z.Z.",
"Q.#.Q.Q.Q.O.Q.Q.Q.Q.O.Q.Q.Q.Q.Q.Q.Q.Q.Q.Q.Q.Q.Q.Q.Q.Q.Q.Q.Q.Q.W.].{.{.{.b.[.[.[.{.{.[.{.{.[.{.{.{.[.[.+X{.{.{.[.[.[.{.{.{.{.{.{."
};
