/* XPM */
static char *f3ec63079e194bde8790ac2e764217d1lIj5wO8GXOfagvEz[] = {
/* columns rows colors chars-per-pixel */
"64 64 227 2 ",
"   c #131313",
".  c #181818",
"X  c #1D1D1D",
"o  c #1E1E1E",
"O  c #1F1F1F",
"+  c #202020",
"@  c #212121",
"#  c #222222",
"$  c #232323",
"%  c #242424",
"&  c #252525",
"*  c #262626",
"=  c #282828",
"-  c #292929",
";  c #2A2A2A",
":  c #2B2B2B",
">  c #2C2C2C",
",  c #2D2D2D",
"<  c #2E2E2E",
"1  c #2F2F2F",
"2  c #303030",
"3  c #313131",
"4  c #323232",
"5  c #333333",
"6  c #343434",
"7  c #353535",
"8  c #363636",
"9  c #373737",
"0  c #383838",
"q  c #393939",
"w  c #3A3A3A",
"e  c #3B3B3B",
"r  c #3C3C3C",
"t  c #3D3D3D",
"y  c #3E3E3E",
"u  c #3F3F3F",
"i  c #404040",
"p  c #414141",
"a  c #424242",
"s  c #434343",
"d  c #444444",
"f  c #454545",
"g  c #464646",
"h  c #474747",
"j  c #484848",
"k  c #494949",
"l  c #4A4A4A",
"z  c #4B4B4B",
"x  c #4C4C4C",
"c  c #4D4D4D",
"v  c #4E4E4E",
"b  c #4F4F4F",
"n  c #505050",
"m  c #515151",
"M  c #525252",
"N  c #535353",
"B  c #545454",
"V  c #555555",
"C  c #565656",
"Z  c #575757",
"A  c #585858",
"S  c #595959",
"D  c #5A5A5A",
"F  c #5B5B5B",
"G  c #5C5C5C",
"H  c #5D5D5D",
"J  c #5E5E5E",
"K  c #5F5F5F",
"L  c #606060",
"P  c #616161",
"I  c #626262",
"U  c #636363",
"Y  c #646464",
"T  c #656565",
"R  c #666666",
"E  c #676767",
"W  c #686868",
"Q  c #696969",
"!  c #6A6A6A",
"~  c #6B6B6B",
"^  c #6C6C6C",
"/  c #6D6D6D",
"(  c #6E6E6E",
")  c #6F6F6F",
"_  c #707070",
"`  c #717171",
"'  c #727272",
"]  c #737373",
"[  c #747474",
"{  c #757575",
"}  c #767676",
"|  c #777777",
" . c #787878",
".. c #797979",
"X. c #7A7A7A",
"o. c #7B7B7B",
"O. c #7C7C7C",
"+. c #7D7D7D",
"@. c #7E7E7E",
"#. c #7F7F7F",
"$. c #808080",
"%. c #818181",
"&. c #828282",
"*. c #838383",
"=. c #848484",
"-. c #858585",
";. c #868686",
":. c #878787",
">. c #888888",
",. c #898989",
"<. c #8A8A8A",
"1. c #8B8B8B",
"2. c #8C8C8C",
"3. c #8D8D8D",
"4. c #8E8E8E",
"5. c #8F8F8F",
"6. c #909090",
"7. c #919191",
"8. c #929292",
"9. c #939393",
"0. c #949494",
"q. c #959595",
"w. c #969696",
"e. c #979797",
"r. c #989898",
"t. c #999999",
"y. c #9A9A9A",
"u. c #9B9B9B",
"i. c #9C9C9C",
"p. c #9D9D9D",
"a. c #9E9E9E",
"s. c #9F9F9F",
"d. c #A0A0A0",
"f. c #A1A1A1",
"g. c #A2A2A2",
"h. c #A3A3A3",
"j. c #A4A4A4",
"k. c #A5A5A5",
"l. c #A6A6A6",
"z. c #A7A7A7",
"x. c #A8A8A8",
"c. c #A9A9A9",
"v. c #AAAAAA",
"b. c #ABABAB",
"n. c #ACACAC",
"m. c #ADADAD",
"M. c #AEAEAE",
"N. c #AFAFAF",
"B. c #B0B0B0",
"V. c #B1B1B1",
"C. c #B2B2B2",
"Z. c #B3B3B3",
"A. c #B4B4B4",
"S. c #B5B5B5",
"D. c #B6B6B6",
"F. c #B7B7B7",
"G. c #B8B8B8",
"H. c #B9B9B9",
"J. c #BABABA",
"K. c #BBBBBB",
"L. c #BCBCBC",
"P. c #BDBDBD",
"I. c #BEBEBE",
"U. c #BFBFBF",
"Y. c #C0C0C0",
"T. c #C1C1C1",
"R. c #C2C2C2",
"E. c #C3C3C3",
"W. c #C4C4C4",
"Q. c #C5C5C5",
"!. c #C6C6C6",
"~. c #C7C7C7",
"^. c #C8C8C8",
"/. c #C9C9C9",
"(. c #CACACA",
"). c #CBCBCB",
"_. c #CCCCCC",
"`. c #CDCDCD",
"'. c #CECECE",
"]. c #CFCFCF",
"[. c #D0D0D0",
"{. c #D1D1D1",
"}. c #D2D2D2",
"|. c #D3D3D3",
" X c #D4D4D4",
".X c #D5D5D5",
"XX c #D6D6D6",
"oX c #D7D7D7",
"OX c #D8D8D8",
"+X c #D9D9D9",
"@X c #DADADA",
"#X c #DBDBDB",
"$X c #DCDCDC",
"%X c #DDDDDD",
"&X c #DEDEDE",
"*X c #DFDFDF",
"=X c #E0E0E0",
"-X c #E1E1E1",
";X c #E2E2E2",
":X c #E3E3E3",
">X c #E4E4E4",
",X c #E5E5E5",
"<X c #E6E6E6",
"1X c #E7E7E7",
"2X c #E8E8E8",
"3X c #E9E9E9",
"4X c #EAEAEA",
"5X c #EBEBEB",
"6X c #ECECEC",
"7X c #EDEDED",
"8X c #EEEEEE",
"9X c #EFEFEF",
"0X c #F0F0F0",
"qX c #F1F1F1",
"wX c #F2F2F2",
"eX c #F3F3F3",
"rX c #F4F4F4",
"tX c #F5F5F5",
"yX c #F6F6F6",
"uX c #F7F7F7",
"iX c #F8F8F8",
"pX c #F9F9F9",
"aX c #FAFAFA",
"sX c #FBFBFB",
"dX c #FCFCFC",
"fX c #FDFDFD",
"gX c #FEFEFE",
/* pixels */
"~.R.F.~.8XuXiXdXdXdX8X1X*XXX].~.~.R.G.c.c.h.c.F.s.s.r.w.w.h.G.R.R.~.].1X8X8XwXuXiXiXiXiXuX4X1X*X*X@X[./.R.U.R.~.].[.R.~.~.XXXX].",
"/.R.R.4XuXuXiXiXdXiXiX4X-XXX].~.~.~.G.c.l.l.l.r.s.h.h.6.w.M.G.U.R././.*X4X8XuXiXiXuXdXwX@X@X[.*X*X@XXX].]././././.~.G.R.R.@X*X[.",
"/.[.4XuXuXuXuXuXiXdXiXwX8X@X[.]./.~.G.M.l.l.-.6.l.h.s.6.r.M.Z.G.R.~./.-X4X4X4X8XwXwX-X].].[.XX-X*X*XXX]././././.].~.XX-X@X*X*XXX",
"@X1XuXuXuXuXuXuXiXiXdXuX4X-X@XXX].~.G.Z.l.-.#.-.w.l.h.r.s.M.Z.U.U.U.].-X4X4X-X1X1X*X].].].[.XX*X-X-XXX]././.~.].].XX-X-X*X*X*X@X",
"*X8XuXuXuXwXwXuXiXiXiX8X4X1X@XXX].R.G.Z.6.#.-.$.-.s.c.s.s.Z.F.G.G.U.~.XX-X4X1X-X4X[.].].[.[.[.-X-X].~././.G.R.[.[.[.@X-X*X-X*X*X",
"4XwXwXuXuXuXuXuXiXiXdXwX4X-X-X@XXX].U.l.-.-.-...-.h.l.r.h.Z.F.F.U./.~.].[.*X1X1X@X].].].[.[.*XXXM.$.>.w.c.U.].[.XXXX*X1X-X-X*X*X",
"8XwXwXwXuXuXwXwXiXiXuXwX1X*X*X@X[.[.G.h.>.>.-.#.>.M.M.s.r.l.M.Z.~.~./.].]./.XXXX*X-X@X[.XX].c...' #.$.-.].*X[.XXXX@X-X-X1X-X-X-X",
"wXwX8XwXwXuXuXuXiXiXuXwX-X*XXX].].R.G.r.5.>.-.$.s.F.M.s.r.h.c.U.].R.U././.].@X1XwX8X4XF.#.) J ....' 6.*XuX-XXX[.XXXX-X-X-X-X-X1X",
"wX8XwXwX8XuXuXiXiXiXiX8X-X@X]./.U.Z.h.r.6.5.>.r.M.Z.M.s.r.M.].XX].R.G.G.~.@X4X4X4X4X@X) n Z L { 6.h.XXiXwX1X@X-X-X-X4X-X@X-X-X1X",
"8X8X8X8XwXwXuXiXiXiXiX4X*X].].[./.Z.h.s.r.6.6.M.F.M.l.s.G.].XX@X/.R.U.].*X-X4X1X8XG.{ L L Z #.s.].wXwXwX8X8X8XwXwX-X@X@XXX-X-X1X",
"4X8X8X8XwXuXiXuXiXuXwX8X-X[./.XX[.~.M.l.s.r.r.s.l.r.w.F././.[.@X].R.U.-X4X1X1X1X4Xh.L ) J ..*X1X4XwX8X8X8XwXwXwXwX*XXXXX-X4X@XXX",
"*X8X8X8XwXuXuXiXuXuXwX8X4X*X].].].~.G.c.h.s.r.w.5.>.6.F.~./.XX[./.~.].1X4X1X-X1X[.{ E E E U.-X*X8X8X8XwXwXuXwXwXwX4X-X*XXX[./.].",
"-X4X1X4X8X8X8X8X8XwX4X4X1X-XXX].~.R.G.c.l.h.s.5.w.s.w.h.l.h.G.].].].[.1X1X-X1X1X~.W ) W ..].-X4XwX8XwXuXuXwX8X8X8X4X4X-X/./././.",
"1X4X4X4X1X-X-X4XwXuXwX8X*XXX[./.~.R.U.M.c.l.r.r.r.r.r.s.6.#.R.XXXX].XXwXwX8X@X>.{ $.h.s.w./.8XuXuXiXwXuXuXwX8X8X8X4XwX1X~././.].",
"@X-X4X1X-X-X4XiXuXuXwX1X@XXX[./.~.R.G.l.l.s.5.w.w.s.r.l.6.W 5.#.{ r./.5.c.>...D { M.Z.r.c.@XuXuXiXwX4XwXwXwXwXwX8X1X4XXXG.~.~./.",
"/.[.XX-X1X1XuXiXwXwX1X1X*XXX].~.~.~.G.h.h.w.6.w.w.r.s.l.>.W n t t c E W ' J E ..Z.l.s.s.G.*XiXwXuX4X8XuXuXdX8X-X4X-X].U.U.G.R.~.",
"].[.U.~.*X8XuXuXuX4X1X4X-X[.]./.~.R.F.M.r.w.r.r.w.w.s.5.' D s h h c c J { Z Z -.F.c.r.h.Z.[.8X8X1X4XuXuXiXiX-XXX-X@XG.G.G.~.~.~.",
"].].M.~.-XwXuXuXuXwX8XwX4XXX[.].~.U.G.l.r.s.s.r.6.5.#.' D e s k k s t t n c W l.c.c.s.r.h.].*X1X@XuXiXuXuXuX4X/.U.G.M.G.[.].~.~.",
"~.U.R.[.4XwXwXwXuXwXwX8X1X@XXXXX/.~.c.w.s.s.w.l.Z.h...D s h c c k s h h t s 5.c.l.h.r.w.c./.].].[.-X1X8X8X-XG.Z.F.F.R.XXXX].~.~.",
"R./.].XX8X8XwXwXuXwX4X4X1X*X@X]./.F.w.s.h.s.c.F.Z.6.J k J D n n c h s 8 k -.5...>.>.6.5.h.R././.[.XXXX*X1X~.M.Z.U.[.@X-XXX].~.R.",
"R.]./.XX8X8X8XwXuXuX8X4X-X-X@X[.~.r.r.s.6.Z.U.#.W E L ) W k k k n h t c { 5.{ E E ..6.6.M./.].[.[.XXXX[./.G.U.~.XX[.@X-X@X[.~.~.",
"~.].].XX8X8X8X8XwXuXwX4X1X1X*XXXZ.h.h.r.M./.w.) E D D E n t s D J n D E J ' ) W E ' >.F./.]./.[.]./.].[.].[.[.[.[.[.XX-X*XXX].R.",
"~.~./.[.1X8X8XwXuXuXuX8X4X[./.Z.r.c.Z.].[.M.-...E Z Z c s t h E ) ' ) J h L W E J ..s.~./.F.Z./.]./.[.[.[.[.[.[.[.[.@X-X*X@X[.].",
"R.R.]./.@X8X4XwXwXuX8X-X~.c.M.h.r.h.R.*X].6.#.E c c n k t s J W ..' ' L e c W c h h./.~.c.w.c.R.~.~./.].].[.[.[.].XX@X-X-X*XXX[.",
"R.U.~./.*X4X4X4X1X1X@Xc.h.M.M.M.Z.F.~.@Xh.Z Z n k c k s c J { ' ' E ) h o t L s c 6.s.s.5.6.c.R./././.].].].].].[.XX@X-X-X-X@X[.",
"U.U.U.~.@X1X4X-X*X1X/.r.l.M.Z.l.U.R./.h.D Z Z D Z D J D L L W W W L t * 1 n ..{ ..#.$.5.w.6.s.~././.]./.].[.[.].[.XX@X1X-X-X*X].",
"U.U.U.R.].[.@X1X1XXXZ.h.c.c.h.Z././.c.E L L E n c D J D J Z D D L c 5 #.-.$.{ ..#.....#.5.l.G.R./.].].XX8XwX1XXXXXXX@X-X-X1X*XG.",
"F.M.Z.U./.].Z.Z.F.M.c.c.l.s.h.M.M.Z.' ) W E L k J J D D ) E Z s s e #.6.5.w.#.......{ #.l.G.R.R.R.R.-XuXuXwX4X@X@X@X1X-X].[.R.Z.",
"h.h.F.~.[.F.w.r.r.h.Z.M.h.w.6.>.W #.' ) W ) L J J Z Z Z { W 8 # ; D r.-.>.w.#...{ #...r.G.M.G.R.@X8XuXwXwXwX8X-X-X@XXX/.G.R.M.l.",
"h.l.c.h.6.5.h.h.r.r.c.c.l.6.E D ' $.) ) W E J D s 8 n W E 8 1 e 1 ..w.>.r.$.W { ' { w.G.G.G.U./.uXuXwX8X8XwX8X8X8X[.~.~.U.c.h.l.",
"c.h.#.E { 6.w.w.6.6.l.M.c.W Z J J Z Z J W J n h e 5 D W s k L E J -.w.w.' J Z J $.s.Z.F.Z.U.XX-XwXwXwX8X8X8X8X4XuX~.U.].w.$.h.l.",
"5.{ E ..5.5.w.r.w.w.r.>.{ Z Z D D n n Z J n k s 5 8 h D W { #...#.$.h.' c J E -.l.Z.M.Z.M.].@X*XuXuXuXiX8X4X4X1X/.h.c.Z.{ ) ..6.",
"W W ) -.6.6.w.r.w.s.>.J D D Z E E D D n c k h e 1 8 c -.$.#.#.{ #.>.W k D 5.r.l.M.M.F.G.R./.XX8XiXiXdXwX@X-X8X/.s.s.h.$.' ) W L ",
"L J E -.r.w.w.s.w.$.-.E E L L ' J n D Z c n n e 8 e -.w.#.$.{ #.{ 5 k D -.r.w.r.M.F.G.G.U.~.1XdXiXiXuXwX@XR./.M.h.h.h.$.{ ) E ) ",
"J J Z >.w.w.r.5.) E E J E J ' >.' J E L n k c s ; 8 $.' #.#.#.$.e ; J $.6.r.r.r.l.F.F.F.G.~.-X1X8XwX8X].F.Z.F.c.s.h.s.#.{ L D D ",
"L Z ' 6.5.w.5.W W E E J L E ..>.$.W W E e h n 8 ; Z { ' ..#...D * e ..5.6.r.r.h.h.M.Z.F.U.[.XXXX*X1X].c.F.F.F.c.h.s.#.' E J J n ",
"J E >.5.6.-.{ ) L E L J J J ) >...L L D h c k * Z ) L W W ' W h 8 t $.w.w.r.s.s.s.c.F.F./.].[.[.[./.Z.M.F.F.F.F.s...' W L J D Z ",
"c L 5.>.{ ) W E J Z D J D D { >.{ E J n n c 1 1 c c E J J c h h 8 D 5.w.r.r.s.s.s.s.M.Z./.].].].[./.Z.F.M.F.G.r.#.#...' E J Z c ",
"Z W #.{ ) { W E L J L ' { 5.w.>.' J D D n h 8 h h s c Z c s t s h ' 5.6.6.s.w.w.w.5.r.h.U.~.~.]./.c.Z.Z.F.F.6.$.-.6.r...W L n k ",
") ' #.' ' ) ) W W ' { $.5.r.w.>.W J D Z c h J n s e t 8 e s t s h ) -.-.>.-.#...>.5.5.s.R.~.].G.M.l.Z.Z.M.6.5.w.r.h.h.>.W ) ) W ",
"' ....) ) W W ) ' { >.s.h.r.r.>.W L D D h s Z Z s e 1 # 1 s t h s s J { { ..#...#.5.6.r.U.R.F.6.s.s.s.h.6.6.l.c.c.h.h.5.' ' ' ' ",
") ..' ' ) W W ..>.r.h.c.c.r.r.-.) L L D e 5 k n h ; # o 1 t t t e k D L { ..' ) ..-.-.) #.r.6.5.r.l.s.6.h.M.M.Z.M.h.h.5.' ' ' ' ",
"$.>...) { ' -.w.s.s.h.c.M.l.r.-.{ W J t 5 1 8 h e 1 o # c Z J L J { ' ) ..W J L ' ' E J E $.6.h.F.M.l.M.Z.M.F.F.M.c.l.6...{ ' ) ",
"6.w.$.-.l.l.h.h.h.s.h.c.M.c.h.5.{ L s e 5 ; ; 1 1 1 ; h ..-.#.#.#...>.s.>.' E E L L W #.6.h.l.U.G.M.U.G.M.M.G.F.M.c.c.r.$...{ $.",
"w.5.s.G.F.M.c.l.h.h.h.M.M.M.c.w.E e 8 e 1 * * 5 t h Z ' ..$.#...{ ' w.l.6.-.{ W ) { r.l.s.h.G.G.F.R./.G.M.U.U.G.Z.M.c.s.>.$.$.w.",
"6.s.G.G.Z.M.M.c.l.l.l.Z.Z.s.{ E D c t 8 1 # # t s Z E ' W ......#.>.s.h.r.6.5.-.>.>.w.h.Z./././.].]./.~.R.~.R.G.Z.M.M.s.w.$.6.h.",
"M.U.G.G.F.F.G.Z.c.l.c.F.c.n 5 8 h n h e ; # 5 c E { ' ) W E ) W ..w.h.h.h.6.6.5.>.5.F.[.*X*XXX[.[.XXXXXX].~.~.G.F.F.M.h.w.5.l.h.",
"/.U.G.G.G.U.R.U.Z.c.M.F.W e h e 1 s 5 # o 5 n ) ' { { ) W L L J ) r.c.c.l.6.>.w.5.G.*X@X*XXX[.[.XX@X*XXX].]./.~.U.G.M.s.w.c.G.R.",
"/.R.F.F.G.U.R.~.G.F.M.D e s e t t 8   1 e n L ) ) { ..' ) L L D ..F.M.c.s.>.5.6.r.XX*X@X*X4X-X[.@X@X@XXX[.[.[./.R.U.M.r.Z././.].",
"~.F.U./.[.~.U.R.U.~.5.8 h h t 8 8 . e Z n Z L L W { ) ) W J Z ..M.Z.M.l.r.>.5.-.c.-X@XXX-X8XwX1X-X*X@XXXXX[.[.].U.G.c.M.R.R.~./.",
"~.].@X*X@X].R.U.G.r.n s h s h h # 5 D n n Z D E L E n c c n #.R.U.M.c.h.>.5.c.r.].@X@X4X8X4X8XiXiX1XXXXX[.[.[./.U.G.G.~.R.R.].].",
"[.*X@XXX[.].~./.r.h c n s ; 5 1 ; t h k Z Z Z n c h s k -.>.U.R.F.M.s.5.r.l.G.].*X@X4XiXiXwXwXiXuX4X*XXX[.[.[./.U.F.F.G.R.R./.[.",
"-X*XXX].[.].[.l.) L h t 1 o 1 t s s t k n n n k c W E h.XXXXXX~.U.h.5.6.c.M./.-X8XuXuXuXuXiXiXuXuXuX1X@X[.[.[./.G.M.Z.U.~.[.4X8X",
"4X-X[.].[.XXG...' E h 5 5 k D h s t t s Z Z Z h $.]./.[.@X[.[.U.r.>.>.6.l.M.~.8XiXiXuXuXdXdXiXiXuXwX-X*XXXXX~.F.G.F.U.~.~.1XuXwX",
"8X-XXX].R.F.#.....W c J -.{ J n s s n J E L Z W ~./.].XX*X*X/.r.-.5.r.s.l.l.@XdXiXdXiXiXdXdXiXiXuXuX-X*X*X[.F.Z.F.U.~.[.XX8XwX8X",
"1X-X*X].l.-.) ' ' W #.w.r.$.) D s D 6.r...W L h./.~./.*X*X-XZ.w.6.h.G.s.s.~.iXiXiXdXdXdXdXiXiXuXuXwX-X@X@X~.M.F.F.U./.@X@X8X8X4X",
"8X4X*XZ.$.>.$.-.$.w.l.s.w.-.{ D W 6.h.w.-.W W Z./.[.[.@X-X/.h.r.s.Z.F.l.U.wXuXuXuXuXiXdXdXiXuXuXuXwX*X@X].M.F.G.F.R.XXXX@XwXwX4X",
"8X4X/.R.M.c.h.s.M.c.l.s.l.s.s.l.M.c.h.s.r.>.-.F.[.@X].U.~.Z.h.h.l.Z.F.[.8XuXuXuXuXuXiXdXdXiXuXuXuX4X*XXXG.F.G.U.G.R./.1X8XuXwX8X",
"1X@X[./.G.Z.h.h.c.Z.F.Z.~.[.]./.U.c.c.F.Z.M.M.M.R.~.U.G.G.M.s.s.c.M.U.-X4XuXwXuXuXuXdXdXiXiXuXwX8X1X-X~.U.U.U.G.U.R.XXuXuXuXwX8X",
"XXXX[.].c.r.h.M.c.Z.G.~.[.*X/./.~.U.G.G.G.F.M.Z././.U.U.Z.h.h.r.F.R./.4XwXwXuXwXuXuXdXiXiXiXuXwX8X1X[.R.R.U.U.G.R.@X1XwX8XwX8X*X",
"[.].[.].r.w.l.h.M.~.XXXX@XXX/./.~.R.G.G.F.F.F.l.].~.R.F.c.h.w.h.~.].[.8X8XwXuXwXuXuXiXiXuXuXwXwX8X*X/.~.R.U.G.G.[.XX-XwX8X8X-X@X",
"/.@X[.G.G.G.l.F.[.XXXX@X@XXX[.[./.~.U.G.M.M.c.M.].].R.c.r.6.r.c.].].[.8X8X8XwXuXuXiXiXiXuXuX8X8X1X[./.~.R.R.G.U.].[.4XuXuX-XXXR.",
"R.XXR.U.XX-X[.@X-XXXXX@X@X@X[.[./.~.G.F.Z.h.6.F.].F.Z.l.5.s.l.F././.[.8X8X8XwXwXiXiXiXuXuXwX4X4X@XXX].R.R.R.G.F.R.1XuX8X1XXX/.G.",
"R.R.G.F.[.8XuXwXuXwX*X*X*XXX[.].R.R.U.Z.c.h.r.Z.F.r.s.6.w.h.l.R./.~.XX4X8X8XwXuXiXiXiXiXuX8X8X-X*XXX/.~.R.U.F.U.].8X8X*X[.].~.U."
};
